<?xml version="1.0" encoding="UTF-8" standalone="no"?>
<!-- Created with Inkscape (http://www.inkscape.org/) -->

<svg
   width="264mm"
   height="115.5mm"
   viewBox="0 0 263.99999 115.50001"
   version="1.1"
   id="svg1"
   xml:space="preserve"
   xmlns="http://www.w3.org/2000/svg"
   xmlns:svg="http://www.w3.org/2000/svg"><defs
     id="defs1"><rect
       x="44.63821"
       y="60.392872"
       width="871.758"
       height="337.41235"
       id="rect1" /><rect
       x="44.63821"
       y="60.392872"
       width="871.758"
       height="337.41235"
       id="rect1-8" /></defs><g
     id="layer1"><g
       id="g14"
       transform="matrix(1.1000292,0,0,1.1000292,-9.6213857,-14.932652)"><text
         xml:space="preserve"
         transform="matrix(0.27626737,0,0,0.27626737,102.45621,15.066577)"
         id="text1"
         style="font-size:61.7764px;font-family:'Helvetica Neue';-inkscape-font-specification:'Helvetica Neue, Normal';letter-spacing:0px;white-space:pre;shape-inside:url(#rect1);display:inline;fill:#166464;fill-opacity:1;stroke-width:7.569;stroke-opacity:0.972549"><tspan
           x="44.638672"
           y="210.7784"
           id="tspan6"><tspan
             style="font-size:160px;font-family:CocogooseProTrial;-inkscape-font-specification:'CocogooseProTrial, Normal'"
             id="tspan5">ORDY</tspan></tspan></text><text
         xml:space="preserve"
         transform="matrix(0.27626737,0,0,0.27626737,34.671125,15.069762)"
         id="text1-3"
         style="font-size:61.7764px;font-family:'Helvetica Neue';-inkscape-font-specification:'Helvetica Neue, Normal';letter-spacing:10px;white-space:pre;shape-inside:url(#rect1-8);display:inline;fill:#166464;fill-opacity:1;stroke-width:7.569;stroke-opacity:0.972549"><tspan
           x="44.638672"
           y="210.7784"
           id="tspan8"><tspan
             style="font-size:160px;font-family:CocogooseProTrial;-inkscape-font-specification:'CocogooseProTrial, Normal'"
             id="tspan7">W </tspan></tspan></text><g
         id="g1"
         transform="matrix(6.5592038,0,0,6.5592038,8.9341694,13.621239)"
         style="stroke:none;stroke-width:1.00003;stroke-dasharray:none"><path
           style="fill:#166464;fill-opacity:1;stroke:none;stroke-width:0;stroke-dasharray:none;stroke-opacity:1"
           d="M 38.748437,471.74716 C 35.654183,470.85992 30.089715,466.32636 21.570896,457.752 7.0188786,443.10513 4.4602074,437.66078 7.2291065,427.23551 8.5967734,422.08606 13.902266,416.28627 54.640889,375.40649 L 100.51268,329.37575 94.521764,317.6394 C 82.149077,293.40095 77.523359,271.86602 78.464333,242.88438 79.170578,221.1323 82.277665,206.17952 89.730744,188.66504 115.78255,127.44419 179.26554,89.120518 244.44299,95.267705 c 74.49322,7.025805 131.85013,64.179895 139.7065,139.212505 5.30382,50.65432 -18.59813,104.41271 -60.39186,135.8287 -27.55303,20.71136 -58.3684,31.0455 -92.68925,31.08394 -25.55572,0.0286 -50.08571,-6.02377 -71.4097,-17.61924 l -9.70394,-5.27676 -45.43738,45.38364 C 53.076839,475.26018 52.489964,475.6873 38.748437,471.74716 Z M 256.30983,352.52879 c 37.2266,-8.92484 66.56651,-36.57109 78.04517,-73.53998 2.66354,-8.57833 3.05735,-12.55243 3.05735,-30.85288 0,-18.30044 -0.39381,-22.27455 -3.05735,-30.85288 -14.37906,-46.31005 -54.83548,-76.12914 -103.28662,-76.12914 -31.17916,0 -56.42246,10.80136 -77.77359,33.27854 -11.38506,11.98552 -18.59117,23.95742 -24.21203,40.22482 -4.17162,12.07312 -4.3096,13.14498 -4.3096,33.47866 0,20.33368 0.13798,21.40554 4.3096,33.47866 5.62086,16.2674 12.82697,28.2393 24.21203,40.22481 15.15024,15.94926 34.05112,26.80973 54.15304,31.11641 13.5808,2.90957 35.75293,2.7158 48.862,-0.42702 z"
           id="path2"
           transform="matrix(0.04211904,0,0,0.04211904,-0.23934325,-3.9507413)" /></g></g></g></svg>
